<?xml version="1.0" encoding="UTF-8"?>
<svg xmlns="http://www.w3.org/2000/svg" xmlns:xlink="http://www.w3.org/1999/xlink" width="32px" height="px" viewBox="0 0 32 32" version="1.1">
<g id="surface1">
<path style=" stroke:none;fill-rule:evenodd;fill:rgb(0%,0%,0%);fill-opacity:1;" d="M 2.667969 8 C 2.667969 5.054688 5.054688 2.667969 8 2.667969 L 24 2.667969 C 26.945312 2.667969 29.332031 5.054688 29.332031 8 L 29.332031 24 C 29.332031 26.945312 26.945312 29.332031 24 29.332031 L 8 29.332031 C 5.054688 29.332031 2.667969 26.945312 2.667969 24 Z M 8 5.332031 C 6.527344 5.332031 5.332031 6.527344 5.332031 8 L 5.332031 24 C 5.332031 25.472656 6.527344 26.667969 8 26.667969 L 16 26.667969 L 16 17.332031 L 14.667969 17.332031 C 13.929688 17.332031 13.332031 16.738281 13.332031 16 C 13.332031 15.261719 13.929688 14.667969 14.667969 14.667969 L 16 14.667969 L 16 12.667969 C 16 10.089844 18.089844 8 20.667969 8 L 21.464844 8 C 22.203125 8 22.800781 8.597656 22.800781 9.332031 C 22.800781 10.070312 22.203125 10.667969 21.464844 10.667969 L 20.667969 10.667969 C 19.5625 10.667969 18.667969 11.5625 18.667969 12.667969 L 18.667969 14.667969 L 21.464844 14.667969 C 22.203125 14.667969 22.800781 15.261719 22.800781 16 C 22.800781 16.738281 22.203125 17.332031 21.464844 17.332031 L 18.667969 17.332031 L 18.667969 26.667969 L 24 26.667969 C 25.472656 26.667969 26.667969 25.472656 26.667969 24 L 26.667969 8 C 26.667969 6.527344 25.472656 5.332031 24 5.332031 Z M 8 5.332031 "/>
</g>
</svg>
