<?xml version="1.0" encoding="UTF-8"?>
<svg xmlns="http://www.w3.org/2000/svg" xmlns:xlink="http://www.w3.org/1999/xlink" width="32px" height="px" viewBox="0 0 32 32" version="1.1">
<g id="surface1">
<path style="fill:none;stroke-width:2;stroke-linecap:round;stroke-linejoin:round;stroke:rgb(0%,0%,0%);stroke-opacity:1;stroke-miterlimit:4;" d="M 12 6 C 10.201172 3.902344 7.192383 3.254883 4.939453 5.176758 C 2.683594 7.095703 2.367187 10.306641 4.136719 12.577148 C 5.610352 14.466797 10.063477 18.448242 11.525391 19.737305 C 11.689453 19.880859 11.768555 19.954102 11.865234 19.980469 C 11.947266 20.006836 12.038086 20.006836 12.123047 19.980469 C 12.216797 19.954102 12.298828 19.880859 12.462891 19.737305 C 13.921875 18.448242 18.37793 14.466797 19.848633 12.577148 C 21.621094 10.306641 21.342773 7.075195 19.048828 5.176758 C 16.754883 3.275391 13.798828 3.902344 12 6 Z M 12 6 " transform="matrix(1.333333,0,0,1.333333,0,0)"/>
</g>
</svg>
