<?xml version="1.0" encoding="UTF-8"?>
<svg xmlns="http://www.w3.org/2000/svg" xmlns:xlink="http://www.w3.org/1999/xlink" width="32px" height="px" viewBox="0 0 32 32" version="1.1">
<g id="surface1">
<path style=" stroke:none;fill-rule:evenodd;fill:rgb(0%,0%,0%);fill-opacity:1;" d="M 2.667969 8 C 2.667969 5.054688 5.054688 2.667969 8 2.667969 L 24 2.667969 C 26.945312 2.667969 29.332031 5.054688 29.332031 8 L 29.332031 24 C 29.332031 26.945312 26.945312 29.332031 24 29.332031 L 8 29.332031 C 5.054688 29.332031 2.667969 26.945312 2.667969 24 Z M 8 5.332031 C 6.527344 5.332031 5.332031 6.527344 5.332031 8 L 5.332031 24 C 5.332031 25.472656 6.527344 26.667969 8 26.667969 L 24 26.667969 C 25.472656 26.667969 26.667969 25.472656 26.667969 24 L 26.667969 8 C 26.667969 6.527344 25.472656 5.332031 24 5.332031 Z M 16 12 C 13.789062 12 12 13.789062 12 16 C 12 18.210938 13.789062 20 16 20 C 18.210938 20 20 18.210938 20 16 C 20 13.789062 18.210938 12 16 12 Z M 9.332031 16 C 9.332031 12.316406 12.316406 9.332031 16 9.332031 C 19.683594 9.332031 22.667969 12.316406 22.667969 16 C 22.667969 19.683594 19.683594 22.667969 16 22.667969 C 12.316406 22.667969 9.332031 19.683594 9.332031 16 Z M 23.332031 10.667969 C 24.4375 10.667969 25.332031 9.769531 25.332031 8.667969 C 25.332031 7.5625 24.4375 6.667969 23.332031 6.667969 C 22.230469 6.667969 21.332031 7.5625 21.332031 8.667969 C 21.332031 9.769531 22.230469 10.667969 23.332031 10.667969 Z M 23.332031 10.667969 "/>
</g>
</svg>
