<?xml version="1.0" encoding="UTF-8"?>
<svg xmlns="http://www.w3.org/2000/svg" xmlns:xlink="http://www.w3.org/1999/xlink" width="32px" height="px" viewBox="0 0 32 32" version="1.1">
<g id="surface1">
<path style=" stroke:none;fill-rule:evenodd;fill:rgb(0%,0%,0%);fill-opacity:1;" d="M 19.796875 7.542969 C 17.527344 7.542969 15.683594 9.386719 15.683594 11.660156 C 15.683594 11.9375 15.710938 12.207031 15.761719 12.46875 C 15.847656 12.886719 15.722656 13.320312 15.433594 13.636719 C 15.140625 13.949219 14.71875 14.105469 14.292969 14.050781 C 11.347656 13.691406 8.671875 12.472656 6.511719 10.660156 C 6.554688 11.464844 6.832031 12.316406 7.4375 13.207031 L 8.34375 14.546875 L 6.855469 15.183594 L 6.570312 15.304688 C 6.78125 15.546875 7.039062 15.796875 7.324219 16.042969 C 7.648438 16.324219 7.964844 16.554688 8.195312 16.71875 C 8.3125 16.796875 8.40625 16.859375 8.46875 16.902344 C 8.5 16.921875 8.523438 16.9375 8.539062 16.945312 L 8.554688 16.953125 L 8.554688 16.957031 L 10.621094 18.207031 L 8.457031 19.285156 C 8.351562 19.339844 8.246094 19.386719 8.136719 19.429688 C 8.574219 19.796875 9.101562 20.132812 9.660156 20.398438 L 11.515625 21.273438 L 9.964844 22.613281 C 9.117188 23.34375 8.265625 23.890625 7.160156 24.175781 C 8.796875 25.050781 10.671875 25.546875 12.664062 25.546875 C 19.074219 25.546875 24.234375 20.433594 24.234375 14.167969 L 24.234375 13.472656 L 24.800781 13.078125 C 25.683594 12.453125 26.308594 11.613281 26.757812 10.652344 L 23.878906 10.652344 L 23.515625 9.894531 C 22.851562 8.5 21.4375 7.542969 19.796875 7.542969 Z M 4.757812 17.277344 C 4.507812 17.566406 4.386719 17.953125 4.441406 18.339844 C 4.59375 19.410156 5.234375 20.328125 5.9375 21.03125 C 6.132812 21.222656 6.335938 21.402344 6.550781 21.578125 C 6.519531 21.585938 6.484375 21.597656 6.453125 21.605469 C 5.808594 21.765625 4.945312 21.800781 3.503906 21.65625 C 2.945312 21.601562 2.414062 21.902344 2.171875 22.410156 C 1.929688 22.914062 2.027344 23.515625 2.417969 23.917969 C 5.007812 26.566406 8.644531 28.210938 12.664062 28.210938 C 20.28125 28.210938 26.53125 22.296875 26.882812 14.835938 C 28.601562 13.390625 29.464844 11.4375 29.925781 9.65625 C 30.03125 9.257812 29.945312 8.832031 29.691406 8.503906 C 29.441406 8.179688 29.050781 7.988281 28.636719 7.988281 L 25.5 7.988281 C 24.292969 6.117188 22.191406 4.878906 19.796875 4.878906 C 16.238281 4.878906 13.320312 7.617188 13.039062 11.105469 C 10.546875 10.460938 8.359375 9.050781 6.746094 7.140625 C 6.449219 6.789062 5.996094 6.617188 5.546875 6.679688 C 5.09375 6.742188 4.703125 7.03125 4.515625 7.445312 C 3.707031 9.207031 3.550781 11.242188 4.453125 13.308594 L 4.144531 13.441406 C 3.527344 13.703125 3.199219 14.382812 3.382812 15.03125 C 3.628906 15.898438 4.1875 16.667969 4.757812 17.277344 Z M 4.757812 17.277344 "/>
</g>
</svg>
